<svg width="560" height="347" viewBox="0 400 560 347" fill="none" xmlns="http://www.w3.org/2000/svg">


<path d="M394.424 686.327H145.364C137.391 686.327 131 679.864 131 671.957V535.683C131 527.708 137.46 521.313 145.364 521.313H394.424C402.396 521.313 408.787 527.776 408.787 535.683V671.957C408.856 679.864 402.396 686.327 394.424 686.327Z" fill="#cbd3ea75"/>
<path d="M430.505 650.849H181.444C173.472 650.849 167.081 644.386 167.081 636.479V500.205C167.081 492.23 173.541 485.835 181.444 485.835H430.505C438.477 485.835 444.868 492.298 444.868 500.205V636.479C444.868 644.386 438.477 650.849 430.505 650.849Z" fill="white" stroke="#303A68" stroke-width="0.75" stroke-miterlimit="10" stroke-linecap="round" stroke-linejoin="round"/>
<path d="M411.743 525.782H202.749C199.794 525.782 197.388 523.376 197.388 520.419C197.388 517.463 199.794 515.057 202.749 515.057H411.743C414.698 515.057 417.103 517.463 417.103 520.419C417.172 523.376 414.766 525.782 411.743 525.782Z" fill="#CDD3E8"/>
<path d="M411.743 557.066H202.749C199.794 557.066 197.388 554.66 197.388 551.703C197.388 548.747 199.794 546.34 202.749 546.34H411.743C414.698 546.34 417.103 548.747 417.103 551.703C417.172 554.66 414.766 557.066 411.743 557.066Z" fill="#CDD3E8"/>
<path d="M411.743 588.35H202.749C199.794 588.35 197.388 585.944 197.388 582.987C197.388 580.031 199.794 577.624 202.749 577.624H411.743C414.698 577.624 417.103 580.031 417.103 582.987C417.172 585.944 414.766 588.35 411.743 588.35Z" fill="#CDD3E8"/>
<path d="M296.147 619.703H202.749C199.794 619.703 197.388 617.296 197.388 614.34C197.388 611.383 199.794 608.977 202.749 608.977H296.147C299.102 608.977 301.507 611.383 301.507 614.34C301.507 617.296 299.102 619.703 296.147 619.703Z" fill="#CDD3E8"/>
<path d="M300.82 534.858H225.428C224.26 534.858 223.367 533.964 223.367 532.796C223.367 531.627 224.26 530.733 225.428 530.733H300.82C301.988 530.733 302.882 531.627 302.882 532.796C302.882 533.896 301.92 534.858 300.82 534.858Z" fill="#F37878"/>
<path fill-rule="evenodd" clip-rule="evenodd" d="M431.467 622.728C431.467 630.497 425.213 636.823 417.447 636.823C409.75 636.823 403.427 630.497 403.427 622.728C403.427 614.959 409.75 608.633 417.447 608.633C425.213 608.633 431.467 614.959 431.467 622.728Z" fill="#15C39A"/>
<path fill-rule="evenodd" clip-rule="evenodd" d="M420.196 624.653C419.646 624.653 419.165 625.203 419.234 625.822C419.303 626.303 419.784 626.578 420.265 626.578H421.777L422.601 626.441C421.227 628.435 418.89 629.329 416.279 628.985C414.148 628.641 412.361 627.197 411.605 625.203C409.887 620.665 413.186 616.334 417.447 616.334C419.715 616.334 421.639 617.64 422.807 619.221V619.29C423.082 619.703 423.701 619.84 424.113 619.496C424.526 619.221 424.663 618.671 424.388 618.259C422.807 615.852 420.058 614.271 416.897 614.477C412.774 614.752 409.475 618.121 409.269 622.247C408.994 626.991 412.774 630.91 417.447 630.91C419.921 630.91 422.12 629.81 423.632 628.091L423.357 629.122V630.016C423.357 630.497 423.701 630.91 424.113 631.047C424.732 631.116 425.282 630.704 425.282 630.085V624.653H420.196Z" fill="white"/>
</svg>
